<svg class="svg-icon" style="width: 1em; height: 1em;vertical-align: middle;fill: currentColor;overflow: hidden;" viewBox="0 0 1024 1024" version="1.1" xmlns="http://www.w3.org/2000/svg"><path d="M436.258091 536.022098m25.859906-25.859905l413.758482-413.758482q25.859905-25.859905 51.71981 0l0 0q25.859905 25.859905 0 51.71981l-413.758482 413.758482q-25.859905 25.859905-51.71981 0l0 0q-25.859905-25.859905 0-51.71981Z" fill="#999999" /><path d="M950.857143 438.857143v365.714286a146.285714 146.285714 0 0 1-146.285714 146.285714H219.428571a146.285714 146.285714 0 0 1-146.285714-146.285714V219.428571a146.285714 146.285714 0 0 1 146.285714-146.285714h365.714286-219.428571v73.142857h502.198857H219.428571a73.142857 73.142857 0 0 0-73.142857 73.142857v585.142858a73.142857 73.142857 0 0 0 73.142857 73.142857h585.142858a73.142857 73.142857 0 0 0 73.142857-73.142857V658.285714h73.142857V438.857143z" fill="#999999" /><path d="M950.857143 146.285714v329.142857a36.571429 36.571429 0 1 1-73.142857 0v-292.571428a36.571429 36.571429 0 0 0-36.571429-36.571429h-292.571428a36.571429 36.571429 0 0 1 0-73.142857h365.714285a36.571429 36.571429 0 0 1 36.571429 36.571429V146.285714z" fill="#999999" /></svg>